<?xml version="1.0" standalone="no"?>
<!DOCTYPE svg PUBLIC "-//W3C//DTD SVG 20010904//EN"
 "http://www.w3.org/TR/2001/REC-SVG-20010904/DTD/svg10.dtd">
<svg version="1.0" xmlns="http://www.w3.org/2000/svg"
 width="398.000000pt" height="398.000000pt" viewBox="0 0 398.000000 398.000000"
 preserveAspectRatio="xMidYMid meet">
<metadata>
Created by potrace 1.11, written by Peter Selinger 2001-2013
</metadata>
<g transform="translate(0.000000,398.000000) scale(0.100000,-0.100000)"
fill="#000000" stroke="none">
<path d="M2250 2649 c-38 -17 -51 -19 -81 -10 -45 13 -109 14 -142 2 -14 -5
-41 -24 -61 -41 -34 -30 -40 -32 -124 -34 -75 -1 -96 -5 -152 -32 -101 -48
-158 -116 -176 -209 -4 -23 -25 -63 -49 -95 -83 -106 -115 -204 -115 -349 0
-98 -30 -179 -74 -199 -14 -6 -31 -24 -39 -39 -23 -45 -50 -198 -42 -241 4
-20 8 -69 9 -108 2 -81 21 -120 63 -130 14 -4 34 -2 44 5 27 16 29 15 29 -23
0 -146 90 -389 216 -584 49 -74 53 -85 39 -98 -8 -9 -18 -27 -21 -40 -8 -31
-15 -34 -216 -88 -155 -42 -238 -81 -238 -110 0 -14 164 -71 320 -110 52 -13
102 -27 111 -31 15 -5 17 6 21 97 4 95 7 108 41 173 20 39 40 91 43 118 7 53
27 63 46 22 9 -19 8 -42 -2 -96 -13 -68 -13 -72 6 -86 12 -9 33 -13 55 -10 44
6 225 108 286 161 42 37 73 43 73 13 0 -26 -72 -97 -156 -153 -46 -31 -81 -60
-78 -65 6 -11 6 -11 99 51 39 26 89 68 113 94 43 46 62 51 62 16 0 -34 -92
-137 -153 -172 -82 -47 -93 -55 -84 -64 15 -15 122 51 180 111 50 51 57 56 47
30 -23 -60 -71 -123 -124 -159 -59 -41 -92 -73 -84 -82 9 -8 155 103 174 132
28 42 27 18 0 -29 -15 -24 -50 -67 -79 -95 l-53 -50 125 5 c131 4 296 24 416
50 118 25 325 87 325 96 0 22 -87 95 -125 105 -100 26 -245 65 -292 79 -45 14
-53 21 -66 54 -10 26 -25 42 -43 49 -15 6 -23 14 -18 19 5 4 36 28 69 53 82
62 153 134 216 218 l52 71 22 -21 c34 -32 78 -26 114 15 17 20 31 42 31 51 0
8 18 34 41 59 32 35 47 64 70 137 16 51 29 106 29 121 0 34 -24 82 -45 90 -34
14 -6 97 55 163 42 45 47 63 53 184 2 44 11 88 21 108 29 56 31 121 7 191 -15
45 -21 86 -21 154 0 111 -18 150 -97 211 -29 23 -66 62 -83 89 -47 75 -149
127 -249 127 -22 0 -31 7 -41 30 -15 36 -71 87 -116 106 -48 20 -131 17 -184
-7z m71 -539 c33 -35 65 -44 121 -35 83 13 133 9 176 -15 44 -25 57 -49 67
-122 3 -26 17 -67 30 -92 23 -44 24 -47 10 -112 -14 -67 -9 -137 14 -197 6
-16 11 -45 11 -66 0 -50 -28 -141 -43 -141 -24 0 -77 40 -77 59 0 31 -72 120
-115 141 -22 10 -73 26 -113 35 -124 26 -162 18 -162 -31 0 -28 10 -31 134
-44 97 -10 145 -28 175 -64 9 -11 -1 -10 -46 4 -83 26 -179 34 -233 20 -128
-34 -210 -17 -295 60 -64 58 -87 71 -179 99 -54 17 -94 21 -192 21 -76 0 -124
4 -124 10 0 5 15 31 34 57 19 27 40 68 47 92 9 29 31 61 70 101 41 41 59 67
64 93 6 29 12 37 29 37 32 0 111 53 132 89 30 51 89 35 129 -37 30 -53 29 -48
9 -56 -8 -3 -29 1 -45 9 -16 9 -34 13 -39 10 -14 -9 -12 -42 5 -74 19 -38 63
-55 126 -49 86 9 137 61 146 152 4 42 11 61 27 72 29 21 75 10 107 -26z
m-1011 -479 c0 -5 -8 -12 -17 -16 -16 -6 -15 -8 6 -16 23 -9 23 -12 16 -82
-12 -114 -11 -178 5 -230 14 -48 14 -49 -10 -67 -18 -14 -29 -16 -43 -9 -15 9
-18 21 -16 72 2 34 -3 79 -10 100 -11 32 -10 52 5 130 9 51 21 100 26 110 9
17 38 24 38 8z m531 -108 c72 -33 109 -72 109 -112 0 -23 -3 -21 -19 15 -24
53 -60 80 -126 95 -46 10 -60 9 -102 -5 -26 -10 -60 -20 -75 -23 -16 -3 -28
-9 -28 -13 0 -4 24 -32 53 -62 60 -63 106 -82 175 -74 114 13 107 14 105 -19
-6 -81 -104 -155 -205 -155 -119 0 -189 68 -196 191 -5 91 3 132 35 170 l27
31 90 -4 c74 -4 103 -10 157 -35z m-347 -263 c45 -86 123 -139 218 -147 69 -7
127 12 194 63 46 36 55 34 28 -5 -13 -17 -14 -25 -4 -34 16 -17 37 14 56 83
21 75 55 160 64 160 4 0 21 -5 38 -11 28 -10 30 -13 26 -47 -3 -20 -12 -67
-20 -103 -17 -73 -16 -120 4 -127 8 -2 12 8 12 30 0 18 5 40 10 48 8 12 10 10
10 -10 0 -14 15 -50 33 -80 108 -180 335 -183 455 -6 l32 48 0 -34 c0 -21 -19
-75 -50 -137 -43 -89 -62 -115 -138 -189 -64 -64 -109 -98 -168 -129 -45 -24
-84 -43 -87 -43 -2 0 -8 25 -12 56 -4 31 -13 75 -21 98 -17 47 -83 119 -125
137 -31 12 -29 34 2 26 26 -7 36 13 14 29 -15 11 -22 11 -46 -1 -43 -23 -64
-18 -93 20 -28 36 -49 44 -62 23 -4 -7 2 -18 14 -26 29 -19 28 -30 -2 -25 -39
8 -128 -24 -166 -59 -20 -18 -50 -54 -68 -81 -18 -26 -38 -45 -44 -41 -20 13
-107 156 -128 212 -39 102 -50 189 -44 334 4 88 11 147 22 175 l17 43 5 -108
c4 -76 11 -117 24 -142z m276 220 c0 -5 -2 -10 -4 -10 -3 0 -8 5 -11 10 -3 6
-1 10 4 10 6 0 11 -4 11 -10z m110 -37 c27 -34 25 -40 -12 -59 -53 -28 -150
-1 -184 52 -24 35 -8 44 19 10 32 -39 78 -34 91 10 9 30 11 31 38 22 15 -6 37
-21 48 -35z m594 -74 c75 -25 131 -67 139 -105 13 -70 -61 -207 -133 -246 -46
-24 -129 -24 -178 1 -93 48 -142 152 -116 248 7 25 42 24 57 -2 37 -67 156
-96 235 -57 20 10 45 17 55 14 32 -7 18 23 -39 80 -85 88 -175 104 -255 46
-41 -31 -43 -31 -28 -8 9 14 27 31 40 37 38 20 150 16 223 -8z m-134 -29 c0
-5 -4 -10 -10 -10 -5 0 -10 5 -10 10 0 6 5 10 10 10 6 0 10 -4 10 -10z m80
-15 c16 -8 38 -28 49 -43 l20 -29 -35 -16 c-42 -21 -48 -21 -111 -2 -34 10
-56 24 -68 43 -18 27 -18 27 2 10 11 -10 26 -18 34 -18 24 0 50 24 52 48 2 26
17 28 57 7z m485 -104 c10 -45 -46 -206 -87 -248 -18 -18 -42 -52 -53 -75 -28
-58 -51 -70 -74 -39 -18 24 -18 26 1 66 11 23 30 45 42 51 20 8 26 26 42 111
7 38 68 108 92 106 23 -3 30 11 12 22 -15 9 -12 35 4 35 8 0 17 -13 21 -29z
m-818 -488 c38 -57 -6 -186 -75 -219 -53 -25 -66 -17 -72 46 -4 45 -9 57 -30
67 -43 22 -72 12 -97 -32 -26 -46 -48 -51 -75 -14 -40 53 -36 156 8 208 24 28
30 30 107 33 76 3 87 1 150 -31 38 -19 76 -45 84 -58z m-283 -372 c3 -5 -1
-11 -9 -15 -9 -3 -15 0 -15 9 0 16 16 20 24 6z m414 -43 c-2 -6 -15 -18 -28
-27 -13 -9 -22 -11 -19 -6 3 6 9 18 12 28 7 19 41 24 35 5z"/>
<path d="M1720 1784 c-48 -33 -100 -88 -100 -106 0 -25 8 -23 70 17 75 48 115
47 217 -5 92 -48 117 -49 121 -4 4 37 -19 55 -106 85 -84 29 -171 35 -202 13z"/>
<path d="M1828 1068 c-24 -37 -30 -66 -18 -88 15 -28 36 -20 32 13 -2 14 4 39
12 55 23 44 0 60 -26 20z"/>
<path d="M2115 1010 c-3 -5 -4 -18 -1 -28 3 -9 -1 -30 -9 -46 -19 -36 -19 -46
0 -46 18 0 45 50 45 83 0 28 -24 54 -35 37z"/>
<path d="M1787 782 c-19 -20 -22 -48 -8 -57 5 -3 12 -1 16 5 8 13 76 13 107 1
13 -6 41 -13 62 -16 25 -4 50 -17 68 -37 l28 -30 11 25 c14 32 5 61 -17 53 -8
-3 -25 -1 -37 6 -12 6 -40 15 -62 19 -73 14 -140 33 -146 41 -3 5 -13 0 -22
-10z"/>
<path d="M1840 681 c0 -23 93 -57 124 -45 29 11 17 24 -21 24 -21 0 -51 7 -67
15 -33 17 -36 18 -36 6z"/>
</g>
</svg>
