<svg xmlns:dc="http://purl.org/dc/elements/1.1/" xmlns:cc="http://creativecommons.org/ns#" xmlns:rdf="http://www.w3.org/1999/02/22-rdf-syntax-ns#" xmlns:svg="http://www.w3.org/2000/svg" xmlns="http://www.w3.org/2000/svg" xmlns:sodipodi="http://sodipodi.sourceforge.net/DTD/sodipodi-0.dtd" xmlns:inkscape="http://www.inkscape.org/namespaces/inkscape" viewBox="0 0 450 481" version="1.1" x="0px" y="0px"><path style="" d="m 297.64708,32.460334 c -30.28054,-0.04824 -60.78125,2.368749 -89.3,12.85 -13,4.2 -24.8,11.3 -36.1,18.9 -25.6,20 -49.2,44.899996 -59.5,76.499996 -5.8,15.1 -0.5,32.2 -6.7,47.2 -8.200003,22.8 -25.500003,40.4 -39.400003,59.7 -2,2.4 -4.6,6.8 -1.4,9.4 7.9,7.2 18.3,11.1 26.7,17.7 -3.2,8.9 -6.6,17.7 -11.2,26 -1.2,2.3 -3,5.4 -1,7.8 3.4,4.8 7.7,8.9 11.5,13.5 -2.9,1.2 -5.8,2.5 -8.8,3.8 2.6,5.4 5.7,10.5 7.7,16.2 4.2,14.7 -2.4,29.7 -3.1,44.5 0.6,12.4 11.7,27.3 25.500003,23.1 32.1,-8.2 62,-23.1 91.7,-37.4 9.6,-5.7 21.3,-10 26.5,-20.5 9.7,-19.2 10.6,-41.1 12.7,-62.1 1.4,-10 -0.5,-22.1 7.2,-30 4.2,-5.6 11.5,-7.7 18.1,-8.7 31.5,-2.6 63.5,-1.1 94.8,-6.2 2.8,-16.3 3.9,-32.8 5.9,-49.2 4.1,-42.9 8,-86 5.6,-128.999996 -0.7,-7.6 -1.1,-15.4 -3.8,-22.6 -0.6,-1.8 -2,-3.3 -3.9,-3.9 -15.7,-5.3 -32.5,-5.9 -48.8,-7.2 -6.93751,-0.20625 -13.91218,-0.338868 -20.9,-0.35 z m -37.275,28.325 c 11.90204,0 16.3,5.625 16.3,5.625 0,0 7.14977,-3.331154 15.85,-0.6 8.22103,2.583523 10.65,9.825 10.65,9.825 0,0 5.93991,-3.791126 14.2,-0.8 8.26716,2.991111 11.55,11.025 11.55,11.025 0,0 5.75618,-0.725852 11.425,3.825 4.20637,3.382644 2.875,9.625 2.875,9.625 0,0 7.00429,2.134916 11.2,9.724996 3.90819,7.06376 -1.65,13.025 -1.65,13.025 0,0 11.54585,7.77204 13.2,28.1 2.01621,24.8018 -15.525,29.575 -15.525,29.575 0,0 3.44464,7.87785 -2.675,16.45 -8.32753,11.66596 -25.075,4.825 -25.075,4.825 0,0 -2.21169,21.65787 -19.85,24.45 -15.10387,2.38775 -25.175,-10.725 -25.175,-10.725 l -4.875,21.175 -10.65,0 c 0,0 -9.58695,-31.93972 -16.2,-37.325 -6.61658,-5.38208 -16.875,-6.925 -16.875,-6.925 0,0 -13.91903,-0.85671 -22.85,-8.925 -8.92741,-8.07468 -0.65,-17.95 -0.65,-17.95 0,0 -11.25771,0.58346 -34.075,-3.9 -22.81373,-4.48666 -15.85,-17.65 -15.85,-17.65 0,0 -5.91611,0.95556 -10.875,-4.725 -3.52482,-4.03735 -6.09991,-13.97591 0.325,-25.475 5.75757,-10.29876 15.875,-13.824996 15.875,-13.824996 0,0 -3.79091,-4.351737 4.1,-10.35 4.12117,-3.132272 11.425,-3 11.425,-3 0,0 1.79571,-6.947966 12.75,-11.425 12.40965,-5.067564 20.65,-0.8 20.65,-0.8 0,0 3.38733,-6.633888 12.975,-9.625 9.59121,-2.987899 19.075,2.1 19.075,2.1 0,0 6.51941,-5.325 18.425,-5.325 z m 77.875,190.524996 c -22.1,0.3 -44.1,1.6 -66.1,2.7 -10.2,-0.2 -21.3,5.9 -23.5,16.5 -4,28.2 -2.1,58.3 -15.8,84.2 -4.6,9.2 -14.08559,13.1393 -22,17.975 -3.32931,2.0342 9.8,7.925 9.8,7.925 0,0 -15.4645,2.06125 -16,8 -0.59871,6.63973 16,12 16,12 0,0 -15.52741,5.35012 -16,12 -0.53468,7.52351 16,16 16,16 0,0 -16,2.03716 -16,8 0,5.96285 16,8 16,8 l -16,16 128,0 -16,-16 c 0,0 16.17421,-2.83239 15.9,-8.9 -0.26205,-5.79848 -15.9,-7.1 -15.9,-7.1 0,0 16.53468,-8.47649 16,-16 -0.47259,-6.64988 -16,-12 -16,-12 0,0 16.5987,-5.36027 16,-12 -0.53551,-5.93875 -16,-8 -16,-8 0,0 15.88436,-8.4584 16,-16 0.11786,-7.6866 -15.8,-16.8 -15.8,-16.8 0,0 15.69563,-1.4132 15.8,-7.2 0.10752,-5.96188 -16,-8 -16,-8 0,0 15.06119,-8.51618 16,-16 1.08085,-8.61611 -9.7,-21.9 -13.3,-22.4 5,-6.1 12,-11.1 14.8,-18.7 1.5,-8 0.1,-16.7 4.1,-24.2 z" fill="#000000" stroke="#000000" stroke-width="0.09375"></path></svg>